<?xml version="1.0" standalone="no"?>
<!DOCTYPE svg PUBLIC "-//W3C//DTD SVG 20010904//EN"
 "http://www.w3.org/TR/2001/REC-SVG-20010904/DTD/svg10.dtd">
<svg version="1.0" xmlns="http://www.w3.org/2000/svg"
 width="800.000000pt" height="800.000000pt" viewBox="0 0 800.000000 800.000000"
 preserveAspectRatio="xMidYMid meet">
<metadata>
Created by potrace 1.11, written by Peter Selinger 2001-2013
</metadata>
<g transform="translate(0.000000,800.000000) scale(0.100000,-0.100000)"
fill="#000000" stroke="none">
<path d="M3705 7989 c-712 -56 -1377 -290 -1960 -687 -934 -637 -1559 -1651
-1709 -2772 -131 -978 104 -1967 662 -2785 60 -88 127 -179 218 -294 2 -2 171
151 376 340 705 649 1404 1294 1812 1673 l408 379 159 -159 c88 -87 159 -162
159 -166 0 -4 -550 -573 -1222 -1264 -673 -692 -1225 -1261 -1226 -1266 -4
-10 7 -20 148 -132 550 -436 1235 -726 1940 -820 979 -131 1967 104 2785 662
934 636 1559 1651 1709 2772 107 801 -29 1607 -394 2330 -37 74 -79 154 -93
178 l-24 43 52 118 c100 222 219 561 301 851 59 211 156 699 189 959 l7 53
-53 -7 c-611 -76 -1250 -247 -1782 -475 l-147 -63 -178 91 c-228 116 -356 170
-572 243 -508 170 -1054 239 -1565 198z m2593 -1284 c86 -20 136 -48 204 -113
181 -172 180 -453 -2 -626 -173 -165 -427 -165 -600 0 -176 168 -184 435 -18
610 65 68 123 104 208 126 81 21 128 22 208 3z"/>
</g>
</svg>
